<svg width="193" height="225" viewBox="0 0 193 225" fill="none" xmlns="http://www.w3.org/2000/svg"><path d="M147.784 119.503L215.994 163.661" stroke="#F1F1F1" stroke-opacity="0.97" stroke-width="16"/><path d="M133.405 141.713L201.615 185.871" stroke="#F1F1F1" stroke-opacity="0.97" stroke-width="16"/><path d="M201.615 185.871C204.561 187.778 208.143 188.436 211.574 187.702C215.005 186.968 218.003 184.9 219.91 181.955" stroke="#F1F1F1" stroke-opacity="0.97" stroke-width="16" stroke-linecap="round" stroke-linejoin="round"/><path d="M12.4972 97.8267C14.1335 105.471 17.2595 112.719 21.6968 119.155C26.134 125.592 31.7956 131.091 38.3583 135.34C44.9209 139.589 52.2561 142.503 59.9451 143.917C67.634 145.33 75.5261 145.216 83.1707 143.579C90.8154 141.943 98.0629 138.817 104.499 134.38C110.936 129.942 116.435 124.281 120.684 117.718C124.933 111.156 127.847 103.82 129.261 96.1314C130.674 88.4425 130.56 80.5504 128.923 72.9058C125.619 57.4667 116.316 43.9728 103.062 35.3925C89.8083 26.8122 73.6888 23.8485 58.2498 27.1532C50.6051 28.7895 43.3576 31.9155 36.9211 36.3528C30.4845 40.7901 24.985 46.4516 20.7365 53.0143C16.488 59.5769 13.5736 66.9121 12.1599 74.6011C10.7462 82.29 10.8608 90.1821 12.4972 97.8267Z" stroke="#F1F1F1" stroke-opacity="0.97" stroke-width="16" stroke-linecap="round" stroke-linejoin="round"/><path d="M147.784 119.503L133.405 141.713" stroke="#F1F1F1" stroke-opacity="0.97" stroke-width="16" stroke-linecap="round" stroke-linejoin="round"/><path d="M140.595 130.608L120.684 117.718" stroke="#F1F1F1" stroke-opacity="0.97" stroke-width="16" stroke-linecap="round" stroke-linejoin="round"/><path d="M166.742 131.776L152.363 153.986" stroke="#F1F1F1" stroke-opacity="0.97" stroke-width="16" stroke-linecap="round" stroke-linejoin="round"/><path d="M38.3696 92.2887C40.2056 100.866 45.3736 108.363 52.7369 113.129C60.1002 117.896 69.0554 119.543 77.6327 117.707" stroke="#F1F1F1" stroke-opacity="0.97" stroke-width="16" stroke-linecap="round" stroke-linejoin="round"/></svg>
