<svg width="246" height="262" viewBox="0 0 246 262" fill="none" xmlns="http://www.w3.org/2000/svg"><path d="M176.191 211.871C182.387 206.198 187.181 198.631 189.625 189.873C196.57 164.99 182.22 139.529 157.437 132.612C132.654 125.695 107.093 140.017 100.148 164.899C93.2038 189.782 107.554 215.243 132.436 222.188C141.095 224.605 149.951 224.395 158.013 222.032L180.538 261.254L198.234 251.281L176.191 211.871ZM137.992 202.282C124.157 198.421 116.221 184.19 120.054 170.455C123.888 156.72 138.047 148.656 151.881 152.518C165.716 156.379 173.553 170.582 169.72 184.317C165.886 198.052 151.727 206.116 137.992 202.282ZM216.974 170.685L211.5 169.157C210.465 160.178 207.489 151.623 203.012 143.83L208.179 125.317L228.085 130.873L216.974 170.685ZM224.847 65.5997L194.988 57.266L200.544 37.3601L230.402 45.6938C235.682 47.1673 240.16 50.6776 242.851 55.4526C245.542 60.2276 246.226 65.8761 244.753 71.1554L236.419 101.014L216.513 95.4585L224.847 65.5997ZM165.129 48.9324L125.317 37.8208L130.873 17.915L170.685 29.0265L165.129 48.9324ZM71.1553 1.24766L101.014 9.58131L95.4583 29.4872L65.5995 21.1536L57.2659 51.0124L37.36 45.4566L45.6936 15.5978C47.1671 10.3184 50.6775 5.84061 55.4524 3.14944C60.2274 0.458269 65.8759 -0.22582 71.1553 1.24766ZM95.2212 222.53L75.3153 216.974L80.8711 197.068C83.5697 206.618 88.6478 215.331 95.2212 222.53ZM21.1534 180.401L51.0122 188.734L45.4565 208.64L15.5976 200.307C10.3182 198.833 5.84044 195.323 3.14927 190.548C0.458104 185.773 -0.225989 180.124 1.24749 174.845L9.58114 144.986L29.487 150.542L21.1534 180.401ZM37.8207 120.683L17.9148 115.127L29.0263 75.3155L48.9322 80.8712L37.8207 120.683Z" fill="#FAFAFA"/></svg>
